<svg width="60" height="83" viewBox="0 0 60 83" fill="none" xmlns="http://www.w3.org/2000/svg">
<path d="M26.752 71.5245C22.5244 71.5245 16.4321 70.8401 12.9436 67.6646C8.04583 63.2077 7.52967 62.1895 5.25367 56.8169C2.82691 51.0907 3.22509 42.6254 3.24967 42.1477C3.23164 41.9685 3.23164 41.7863 3.24967 41.6011C3.42336 39.8281 5.18976 38.2633 6.22699 37.4886C6.28434 37.4503 11.3394 34.1172 18.7819 33.2919C27.0633 32.3763 35.9953 33.2858 41.5354 35.6115C47.2508 38.0107 47.9799 39.1789 48.5027 40.8202C48.968 42.2824 48.8615 50.2456 47.4343 54.5295C47.2967 54.9414 47.1623 55.364 47.023 55.7957C45.7728 59.703 44.2161 64.5673 38.7154 68.2189C35.0482 70.6533 32.8934 70.9718 31.6055 71.1616C31.4236 71.1877 31.2581 71.2122 31.1074 71.2397C30.4634 71.3561 28.833 71.523 26.752 71.523V71.5245ZM3.54789 43.1291C3.50201 45.5742 3.5905 52.0599 5.56008 56.7067C7.81479 62.0272 8.32603 63.0347 13.1746 67.4472C17.8299 71.6853 28.0498 71.4877 31.0467 70.9427C31.2008 70.9151 31.3712 70.8891 31.5563 70.8615C32.8148 70.6763 34.922 70.3639 38.5269 67.9709C43.9359 64.3805 45.409 59.7735 46.71 55.71C46.8477 55.2782 46.9837 54.8541 47.1213 54.4407C48.3519 50.7493 48.5961 44.3126 48.3355 41.7649C48.1323 42.5718 47.6162 43.3664 46.4348 44.3846C44.0522 46.4378 37.3406 50.2869 28.874 50.2869C28.7953 50.2869 28.7167 50.2869 28.6364 50.2869C16.1814 50.1812 7.92129 48.027 4.08371 43.8824C3.86086 43.642 3.68226 43.3909 3.54625 43.1306L3.54789 43.1291ZM25.1281 33.2582C23.0144 33.2582 20.8858 33.3685 18.8212 33.5966C11.4656 34.4111 6.47606 37.6999 6.42526 37.7336C5.43555 38.4731 3.73961 39.9705 3.57575 41.6302C3.50365 42.3712 3.75763 43.0602 4.33114 43.6803C5.92385 45.4012 8.36863 46.7945 11.5983 47.8219C15.9111 49.1937 21.6445 49.9194 28.6397 49.9791C28.7183 49.9791 28.797 49.9791 28.874 49.9791C37.239 49.9791 43.8622 46.1836 46.2119 44.158C47.9734 42.6391 48.1241 41.696 48.1241 40.71C47.7096 39.4484 47.0935 38.2817 41.401 35.8932C37.3733 34.2029 31.3089 33.2598 25.1281 33.2598V33.2582Z" fill="#1D1D1B"/>
<path d="M7.02182 46.1223C7.01035 46.1131 6.99069 46.0994 6.96447 46.081C5.91741 45.3476 5.47827 44.2835 5.65852 42.9208C5.90267 41.079 8.56374 38.2878 13.8335 36.5117C19.893 34.4708 29.6377 34.6821 34.0586 35.6069C42.1254 37.2957 45.9859 40.3731 46.158 42.5166C46.2907 44.161 45.7336 44.7888 45.3993 45.1639L45.3747 45.1914L45.1224 44.9955L45.1469 44.9679C45.4681 44.6066 45.9531 44.06 45.8302 42.5396C45.6664 40.5048 41.8894 37.5605 33.9865 35.9054C29.6049 34.9883 19.9454 34.777 13.9449 36.7996C8.80461 38.5328 6.21564 41.206 5.98296 42.9576C5.81746 44.2039 6.214 45.1715 7.15947 45.8345C7.19224 45.8574 7.21846 45.8758 7.23484 45.8896L7.02019 46.1208L7.02182 46.1223Z" fill="#1D1D1B"/>
<path d="M26.0334 46.7071L24.9224 46.4377C24.4407 46.3213 23.9212 46.3274 23.4165 46.3336C23.3297 46.3336 23.2412 46.3351 23.1544 46.3366C23.1314 46.3366 23.1101 46.3366 23.0872 46.3366C20.0033 46.3366 16.872 45.4899 14.2634 43.9512C13.5981 43.5577 12.8034 43.0004 12.5674 42.1797C12.3757 41.5107 12.6067 40.837 12.8329 40.3884C13.4375 39.2018 14.6697 38.2143 16.2166 37.6814C17.4275 37.2635 18.8367 37.0904 20.6522 37.1333C21.5453 37.1547 22.589 37.2236 23.5575 37.5743C24.5865 37.9463 25.3878 38.62 25.7532 39.4192C25.7663 39.4483 25.7761 39.4667 25.7859 39.485C25.7958 39.5004 25.822 39.5264 25.8875 39.5295C25.9973 39.5325 26.1333 39.4667 26.2021 39.3794C26.2693 39.2937 26.3168 39.1911 26.366 39.0824C26.425 38.9522 26.4873 38.8175 26.5905 38.6981C26.8101 38.4439 27.1574 38.3398 27.5441 38.4148C28.0144 38.5052 28.4093 38.8297 28.5273 39.2232C28.7551 39.9827 28.2242 40.7176 27.6998 41.1156C27.341 41.3882 26.9313 41.5872 26.5331 41.7786C26.3037 41.8888 26.0678 42.0037 25.8482 42.1292L25.7712 42.1736L25.6909 42.1369C25.6385 42.1124 25.5746 42.0848 25.5025 42.0527C24.6766 41.6852 22.9561 40.9212 22.7726 40.0117C22.7332 39.8142 22.766 39.6228 22.8725 39.4406C22.5317 39.4605 22.1843 39.6259 21.9205 39.9046C21.5846 40.2598 21.4617 40.716 21.5993 41.0988C21.8763 41.872 22.8578 42.2272 23.682 42.4492C24.5046 42.6712 25.4254 42.9193 25.9564 43.5577C26.2071 43.1351 26.6839 42.7906 27.3819 42.5304C27.5507 42.4676 27.7211 42.4109 27.8932 42.3543C28.3602 42.1997 28.8026 42.0527 29.1762 41.7893C29.6497 41.4555 29.9758 40.8232 29.7038 40.3425L29.5858 40.1342L29.8382 40.1189C30.3478 40.0852 30.8705 40.347 31.1982 40.7987C31.4096 41.0911 31.5112 41.4249 31.4964 41.7419L33.0367 40.5109L33.1416 40.6349C33.3972 40.935 33.5004 41.3162 33.4414 41.7388C33.3611 42.2961 32.999 42.8565 32.496 43.201C31.8389 43.6526 31.0376 43.8303 30.2626 44.0017C30.0856 44.0415 29.9103 44.0798 29.7366 44.1227C28.3585 44.4565 27.0657 45.0107 25.8941 45.7686L25.7564 45.8574L25.6647 45.7273C24.9552 44.729 23.6377 44.2865 22.2367 43.8854C21.329 43.6251 20.3016 43.3311 19.5593 42.6513C18.8252 41.9776 18.4598 40.7895 19.1185 39.9689C19.3217 39.7147 19.597 39.5279 19.8641 39.3457C20.1279 39.1666 20.3802 38.9936 20.5424 38.7731C19.3233 38.8588 18.1304 39.2064 17.0735 39.7821C16.5164 40.0852 15.5775 40.7268 15.5398 41.624C15.4972 42.5916 16.5033 43.3143 17.1063 43.6588C18.2419 44.3095 19.5429 44.7244 20.8718 44.8591C22.3367 45.0077 23.7819 45.4593 25.0486 46.1651L26.035 46.7148L26.0334 46.7071ZM23.7574 46.0243C23.8704 46.0243 23.9851 46.0243 24.0998 46.0289C23.0757 45.568 21.9615 45.2695 20.8358 45.1546C19.4593 45.0138 18.1108 44.5851 16.9359 43.9114C16.2706 43.5317 15.1629 42.7279 15.2121 41.6041C15.2465 40.8324 15.8479 40.0883 16.908 39.5111C18.0927 38.865 19.4446 38.496 20.8128 38.4439L21.057 38.4347L20.9734 38.6491C20.8079 39.0732 20.4261 39.3335 20.0558 39.5846C19.7969 39.7606 19.5527 39.9275 19.379 40.1434C18.835 40.8217 19.1677 41.8552 19.7871 42.4247C20.472 43.0525 21.4601 43.3357 22.3301 43.5853C23.7328 43.9864 25.0551 44.4304 25.84 45.4226C27.0083 44.6892 28.2897 44.1487 29.653 43.818C29.8283 43.7751 30.007 43.7353 30.1856 43.6955C30.9278 43.5302 31.6963 43.3602 32.301 42.9453C32.7352 42.6467 33.0465 42.166 33.1154 41.6883C33.1432 41.4877 33.1383 41.209 32.981 40.9488L30.7345 42.7447L31.072 42.0894C31.2441 41.7556 31.1884 41.3223 30.9262 40.961C30.7165 40.6701 30.41 40.4787 30.0938 40.4267C30.2626 41.0192 29.8808 41.6684 29.3745 42.0251C28.9615 42.316 28.4749 42.4783 28.0046 42.6345C27.8375 42.6896 27.6687 42.7447 27.5048 42.8075C26.7576 43.0861 26.3005 43.4597 26.1431 43.9175L26.0268 44.2574L25.8433 43.9436C25.4271 43.2301 24.4521 42.9683 23.5919 42.7355C22.6906 42.4921 21.6157 42.0971 21.2896 41.1891C21.1159 40.7038 21.2634 40.1312 21.6763 39.6948C22.0647 39.2845 22.6103 39.0747 23.1216 39.136C23.1216 39.136 23.1838 39.1762 23.2445 39.2384C23.3052 39.3006 23.2734 39.3794 23.2734 39.3794L23.2445 39.4667C23.1118 39.6228 23.0626 39.7805 23.097 39.9474C23.2494 40.7038 24.9896 41.477 25.645 41.7679C25.6843 41.7863 25.722 41.8016 25.7564 41.8169C25.9629 41.702 26.1776 41.5995 26.3857 41.4984C26.7855 41.304 27.164 41.1218 27.4966 40.8691C27.944 40.5292 28.4011 39.9138 28.216 39.2983C28.1308 39.0165 27.8293 38.7731 27.4819 38.7073C27.2181 38.6567 26.9887 38.721 26.8494 38.8833C26.7756 38.9706 26.7248 39.0808 26.6708 39.1972C26.6151 39.3166 26.5594 39.4406 26.4692 39.5539C26.3349 39.7254 26.1005 39.8372 25.8793 39.8295C25.7204 39.8249 25.5893 39.756 25.509 39.6382C25.4894 39.606 25.4746 39.5769 25.4599 39.5478C25.1223 38.8098 24.3882 38.1974 23.4411 37.8544C22.5202 37.5207 21.5109 37.4548 20.6473 37.4349C18.8744 37.3936 17.5029 37.5605 16.3329 37.9647C14.8664 38.4699 13.6997 39.4008 13.1327 40.5155C12.9295 40.9166 12.7214 41.5168 12.8869 42.0955C13.0934 42.8136 13.8259 43.3235 14.442 43.6863C16.9998 45.196 20.0689 46.0258 23.0905 46.0258C23.1118 46.0258 23.1347 46.0258 23.156 46.0258C23.2428 46.0258 23.328 46.0258 23.4149 46.0228C23.528 46.0228 23.6427 46.0197 23.7574 46.0197V46.0243Z" fill="#1D1D1B"/>
<path d="M25.3105 47.9109L25.3384 47.6934C25.5809 45.8378 27.0475 45.8898 28.4665 45.9388C28.7057 45.9465 28.9515 45.9557 29.194 45.9557C31.6765 45.9557 34.1393 45.0738 35.9499 43.535C36.3432 43.2013 36.5546 42.7404 36.5283 42.2719C36.4595 40.9812 35.5108 39.764 34.2212 39.3123L34.1147 39.2756V38.9724L34.3195 39.0183C35.4157 39.2771 36.4628 39.6798 37.4312 40.2156C37.7753 40.4055 38.1669 40.6459 38.4553 40.9781C39.2959 41.9504 38.9911 43.3865 38.2751 44.2439C37.446 45.2391 36.1253 45.7245 35.2044 46.0031C33.6346 46.4778 31.9993 46.7227 30.3459 46.7319C30.1296 46.7319 29.9134 46.7304 29.6971 46.7273C29.058 46.7181 28.3977 46.7105 27.7668 46.8131C27.1671 46.9095 26.6952 47.0979 26.3986 47.3551L25.9873 47.6965C25.9168 47.7562 25.8267 47.8006 25.7284 47.822L25.3105 47.9124V47.9109ZM27.7455 46.2282C26.7148 46.2282 25.9332 46.4012 25.7005 47.5066C25.7251 47.4959 25.748 47.4837 25.7677 47.4668L26.1774 47.1269C26.5215 46.8269 27.0393 46.6186 27.7094 46.5099C28.3714 46.4027 29.0465 46.4119 29.7003 46.4211C29.915 46.4242 30.1296 46.4272 30.3427 46.4257C31.9632 46.4165 33.5641 46.1761 35.1028 45.7122C35.9827 45.4458 37.2411 44.985 38.0162 44.0571C38.6536 43.2931 38.9354 42.0208 38.1997 41.171C37.9441 40.8755 37.5836 40.6551 37.2641 40.479C36.702 40.1682 36.1138 39.9033 35.5026 39.6874C36.2858 40.3351 36.8036 41.2767 36.8561 42.2566C36.8856 42.817 36.6365 43.3666 36.1695 43.7616C34.2999 45.3509 31.7568 46.2619 29.194 46.2619C28.9466 46.2619 28.6959 46.2527 28.455 46.245C28.2092 46.2359 27.9716 46.2282 27.7455 46.2282Z" fill="#1D1D1B"/>
<path d="M28.0718 38.7304L27.9686 38.539C27.7752 38.1776 27.9161 37.7658 28.3176 37.5132C28.6535 37.3019 29.0681 37.2575 29.4646 37.2406C31.3244 37.1625 33.2137 37.5361 34.9293 38.32L34.9637 38.3353L34.9867 38.3629C35.0686 38.4594 35.0424 38.5528 34.9965 38.6033C34.9408 38.663 34.8408 38.6829 34.7671 38.6492C33.6528 38.317 32.4092 38.2343 31.2064 38.1547L30.9164 38.1348C29.9087 38.0674 28.447 38.3736 28.234 38.5757L28.0734 38.7288L28.0718 38.7304ZM34.8965 38.369L34.8769 38.4486L34.9195 38.3797C34.9195 38.3797 34.9047 38.3721 34.8965 38.369ZM29.948 37.5376C29.7923 37.5376 29.635 37.5407 29.4794 37.5468C29.0746 37.5637 28.7535 37.6081 28.4995 37.7673C28.3438 37.8653 28.1996 38.0337 28.2111 38.2297C28.7911 37.9618 30.1348 37.778 30.9393 37.8301L31.2294 37.85C31.9143 37.8959 32.6107 37.9419 33.2956 38.0337C32.206 37.7061 31.0753 37.5376 29.948 37.5376Z" fill="#1D1D1B"/>
<path d="M27.5413 75.2087C27.1989 75.2087 26.8531 75.2042 26.5008 75.1934C19.8301 75.0036 11.8108 72.7192 10.5049 69.6234C10.0379 68.5195 10.4475 67.6222 10.7326 67.1859C11.0866 66.6454 11.5601 66.2979 11.8141 66.2749L11.8469 66.5796C11.7486 66.5888 11.3455 66.8368 11.0128 67.3451C10.7032 67.8198 10.4164 68.5792 10.8097 69.5116C11.9305 72.1696 19.2681 74.6821 26.5107 74.8888C35.2198 75.1398 40.7287 72.2109 42.1559 70.3093C42.4623 69.902 42.5394 69.3325 42.3706 68.7476C42.1264 67.907 41.4366 67.189 40.4747 66.7771L40.6107 66.4984C41.6611 66.9486 42.4165 67.7386 42.6868 68.6664C42.8818 69.3386 42.7868 70.0015 42.4247 70.4838C41.0171 72.3609 35.7785 75.2087 27.5413 75.2087Z" fill="#1D1D1B"/>
<path d="M27.3526 72.8765C25.578 72.8765 22.581 72.6851 21.4766 72.3896C20.2624 72.0666 17.4965 70.8601 17.4883 70.0853L17.816 70.0823C17.8209 70.5447 20.1231 71.7113 21.5651 72.0956C22.9022 72.4524 27.0724 72.6545 28.3243 72.5397C31.5458 72.2426 33.5891 71.4511 34.5706 70.1175L34.841 70.2905C33.8005 71.7022 31.6801 72.5381 28.3554 72.8443C28.1145 72.8658 27.7655 72.8765 27.351 72.8765H27.3526Z" fill="#1D1D1B"/>
<path d="M28.0784 82.045C25.1798 82.045 22.83 81.8321 21.506 81.6775C18.2026 81.2932 13.3098 80.5721 8.9577 78.7639C3.71093 76.5851 0.710666 73.3974 0.0388434 69.2895C-0.505169 65.9763 4.79568 62.3048 7.75989 61.6541L7.83526 61.9526C4.97101 62.5804 -0.152872 66.0911 0.363285 69.2436C1.01708 73.2413 3.95508 76.3493 9.09206 78.4852C13.4032 80.2766 18.2649 80.9916 21.547 81.3743C25.6795 81.8566 39.9025 82.9085 49.3834 76.1932C52.2051 74.1936 53.4733 72.1067 53.1489 69.9923C52.7097 67.1154 49.2589 64.6442 46.2373 63.5648L46.3536 63.2785C48.7493 64.1344 52.9457 66.503 53.4717 69.9479C53.8125 72.1818 52.5033 74.3651 49.58 76.4366C43.0453 81.0666 34.2985 82.045 28.0768 82.045H28.0784Z" fill="#1D1D1B"/>
<path d="M43.1965 63.9713C43.185 63.9713 43.1736 63.9713 43.1621 63.9713L43.167 63.665C43.1801 63.665 43.1932 63.665 43.208 63.665C44.8154 63.665 51.0044 62.5351 53.3951 60.7897C57.0262 58.1378 59.1056 55.2533 59.5759 52.2187C60.0265 49.2943 58.7762 46.2904 56.669 45.2293C55.3188 44.5495 53.0035 44.0626 51.1158 44.597C50.0327 44.9032 49.2331 45.4988 48.7382 46.3669L48.4482 46.223C48.9857 45.2798 49.8508 44.6337 51.0208 44.303C52.9986 43.7442 55.4171 44.251 56.8247 44.9598C59.0843 46.0974 60.3788 49.1673 59.902 52.2616C59.4202 55.3788 57.2999 58.3292 53.5999 61.0316C50.9913 62.9362 44.6205 63.9713 43.2014 63.9713H43.1965Z" fill="#1D1D1B"/>
<path d="M45.3723 60.1023L45.3379 59.7976C50.3061 59.3184 52.4363 57.3402 53.8471 56.0327C55.9904 54.0438 56.0346 51.588 55.8691 50.8086C55.7118 50.0676 55.081 48.3206 52.6182 48.1216C50.5601 47.9562 49.4671 49.3465 48.7445 50.2682C48.5495 50.5177 48.3791 50.7336 48.2185 50.8867L47.9842 50.6724C48.1284 50.5346 48.2923 50.3279 48.4791 50.0875C49.2459 49.1122 50.4028 47.6362 52.646 47.8169C55.3317 48.0328 56.0199 49.939 56.1919 50.7489C56.3656 51.5726 56.3246 54.1648 54.0781 56.2486C52.6362 57.5883 50.4552 59.6108 45.3723 60.1023Z" fill="#1D1D1B"/>
<path d="M28.4701 82.9999C27.9179 82.9999 27.3378 82.9923 26.7233 82.9785C19.1842 82.8009 15.1172 80.9529 14.0488 80.3894L14.2094 80.123C15.2597 80.6773 19.2677 82.4962 26.7299 82.6723C33.3547 82.8284 36.0862 82.167 41.4526 79.9653L41.5837 80.2455C36.663 82.2635 33.9364 82.9999 28.4668 82.9999H28.4701Z" fill="#1D1D1B"/>
<path d="M22.5989 22.8958L22.2859 22.8039C22.8004 21.2912 22.0991 19.8152 21.3568 18.2535C20.8177 17.119 20.2606 15.9462 20.1803 14.7259C20.0656 12.9897 20.921 11.382 21.7468 9.82953C21.8287 9.67336 21.9123 9.51872 21.9926 9.36408C22.7005 8.0152 23.446 6.40604 23.6033 4.70194C23.7672 2.91211 23.2199 1.27692 22.0975 0.215882L22.3301 0C23.5181 1.12534 24.1015 2.84781 23.9278 4.72797C23.7655 6.48259 23.0069 8.12391 22.2843 9.49728C22.2023 9.65192 22.1204 9.80809 22.0368 9.96426C21.2306 11.4816 20.395 13.0509 20.5048 14.706C20.5801 15.8712 21.1258 17.0179 21.6534 18.128C22.3875 19.6728 23.1462 21.2713 22.5956 22.8942L22.5989 22.8958Z" fill="#1D1D1B"/>
<path d="M26.1921 26.5752L25.9414 26.3792C26.977 25.2217 27.3031 23.4931 26.9377 21.0909C26.882 20.7295 26.8181 20.3606 26.7541 20.0023C26.4887 18.4926 26.2134 16.9325 26.5772 15.4198C26.8754 14.1826 27.5816 13.0803 28.2633 12.0131C28.6664 11.3838 29.0809 10.7347 29.407 10.0656C30.6622 7.49183 30.6392 4.42814 29.3448 1.86971L29.6413 1.73804C30.9768 4.37609 31.0014 7.53623 29.7069 10.1911C29.3743 10.8755 28.9531 11.5323 28.5451 12.1677C27.8766 13.2135 27.1835 14.2944 26.8967 15.4841C26.546 16.9401 26.8164 18.4697 27.0769 19.9502C27.1409 20.31 27.2064 20.6805 27.2621 21.0449C27.6423 23.5375 27.2932 25.3457 26.1937 26.5721L26.1921 26.5752Z" fill="#1D1D1B"/>
<path d="M32.4568 26.0115C31.7014 24.2692 31.6654 22.2604 32.3585 20.4981C32.5994 19.8857 32.9254 19.3008 33.24 18.7358C33.5776 18.1295 33.9283 17.5018 34.1642 16.8511C34.7574 15.2159 34.6476 13.3832 33.8611 11.823L34.1577 11.6929C34.9786 13.325 35.0949 15.2419 34.4739 16.9506C34.2281 17.6243 33.8742 18.2627 33.5301 18.8782C33.2204 19.4355 32.8992 20.0112 32.6649 20.6053C31.9996 22.2956 32.034 24.2263 32.7599 25.8982L32.4568 26.0131V26.0115Z" fill="#1D1D1B"/>
</svg>
